<?xml version="1.0" encoding="UTF-8" standalone="no"?>
<!DOCTYPE svg PUBLIC "-//W3C//DTD SVG 1.1//EN"
 "http://www.w3.org/Graphics/SVG/1.1/DTD/svg11.dtd">
<!-- Generated by graphviz version 2.36.0 (20140111.2315)
 -->
<!-- Title: src/about.cpp Pages: 1 -->
<svg width="186pt" height="140pt"
 viewBox="0.00 0.00 186.00 140.00" xmlns="http://www.w3.org/2000/svg" xmlns:xlink="http://www.w3.org/1999/xlink">
<g id="graph0" class="graph" transform="scale(1 1) rotate(0) translate(4 136)">
<title>src/about.cpp</title>
<!-- Node1 -->
<g id="node1" class="node"><title>Node1</title>
<polygon fill="#bfbfbf" stroke="black" points="61,-112.5 61,-131.5 137,-131.5 137,-112.5 61,-112.5"/>
<text text-anchor="middle" x="99" y="-119.5" font-family="Helvetica,sans-Serif" font-size="10.00">src/about.cpp</text>
</g>
<!-- Node2 -->
<g id="node2" class="node"><title>Node2</title>
<g id="a_node2"><a xlink:href="about_8h.html" target="_top" xlink:title="Contains declaration of various trivial functions. ">
<polygon fill="none" stroke="black" points="-0.5,-56.5 -0.5,-75.5 70.5,-75.5 70.5,-56.5 -0.5,-56.5"/>
<text text-anchor="middle" x="35" y="-63.5" font-family="Helvetica,sans-Serif" font-size="10.00">cset/about.h</text>
</a>
</g>
</g>
<!-- Node1&#45;&gt;Node2 -->
<g id="edge1" class="edge"><title>Node1&#45;&gt;Node2</title>
<path fill="none" stroke="midnightblue" d="M88.7173,-112.324C79.1637,-104.263 64.7203,-92.0765 53.2157,-82.3695"/>
<polygon fill="midnightblue" stroke="midnightblue" points="55.3698,-79.6076 45.4698,-75.8339 50.8557,-84.9577 55.3698,-79.6076"/>
</g>
<!-- Node3 -->
<g id="node3" class="node"><title>Node3</title>
<polygon fill="none" stroke="#bfbfbf" points="46.5,-0.5 46.5,-19.5 87.5,-19.5 87.5,-0.5 46.5,-0.5"/>
<text text-anchor="middle" x="67" y="-7.5" font-family="Helvetica,sans-Serif" font-size="10.00">string</text>
</g>
<!-- Node1&#45;&gt;Node3 -->
<g id="edge4" class="edge"><title>Node1&#45;&gt;Node3</title>
<path fill="none" stroke="midnightblue" d="M96.489,-112.368C91.3016,-94.5366 79.3041,-53.2953 72.3154,-29.2717"/>
<polygon fill="midnightblue" stroke="midnightblue" points="75.6534,-28.2157 69.4993,-19.5914 68.932,-30.1711 75.6534,-28.2157"/>
</g>
<!-- Node4 -->
<g id="node4" class="node"><title>Node4</title>
<g id="a_node4"><a xlink:href="config_8h.html" target="_top" xlink:title="Contains options defined at configuration. ">
<polygon fill="none" stroke="black" points="127.5,-56.5 127.5,-75.5 178.5,-75.5 178.5,-56.5 127.5,-56.5"/>
<text text-anchor="middle" x="153" y="-63.5" font-family="Helvetica,sans-Serif" font-size="10.00">config.h</text>
</a>
</g>
</g>
<!-- Node1&#45;&gt;Node4 -->
<g id="edge3" class="edge"><title>Node1&#45;&gt;Node4</title>
<path fill="none" stroke="midnightblue" d="M107.917,-112.083C115.78,-104.22 127.431,-92.5688 136.919,-83.0813"/>
<polygon fill="midnightblue" stroke="midnightblue" points="139.653,-85.2971 144.249,-75.7511 134.703,-80.3473 139.653,-85.2971"/>
</g>
<!-- Node2&#45;&gt;Node3 -->
<g id="edge2" class="edge"><title>Node2&#45;&gt;Node3</title>
<path fill="none" stroke="midnightblue" d="M40.2841,-56.083C44.711,-48.6127 51.1633,-37.7244 56.6179,-28.5199"/>
<polygon fill="midnightblue" stroke="midnightblue" points="59.7271,-30.1383 61.8142,-19.7511 53.7051,-26.5697 59.7271,-30.1383"/>
</g>
</g>
</svg>
