<?xml version="1.0" encoding="UTF-8" standalone="no"?>
<!DOCTYPE svg PUBLIC "-//W3C//DTD SVG 1.1//EN"
 "http://www.w3.org/Graphics/SVG/1.1/DTD/svg11.dtd">
<!-- Generated by graphviz version 2.36.0 (20140111.2315)
 -->
<!-- Title: include/cset.h Pages: 1 -->
<svg width="169pt" height="140pt"
 viewBox="0.00 0.00 169.00 140.00" xmlns="http://www.w3.org/2000/svg" xmlns:xlink="http://www.w3.org/1999/xlink">
<g id="graph0" class="graph" transform="scale(1 1) rotate(0) translate(4 136)">
<title>include/cset.h</title>
<!-- Node1 -->
<g id="node1" class="node"><title>Node1</title>
<polygon fill="#bfbfbf" stroke="black" points="42.5,-112.5 42.5,-131.5 119.5,-131.5 119.5,-112.5 42.5,-112.5"/>
<text text-anchor="middle" x="81" y="-119.5" font-family="Helvetica,sans-Serif" font-size="10.00">include/cset.h</text>
</g>
<!-- Node2 -->
<g id="node2" class="node"><title>Node2</title>
<g id="a_node2"><a xlink:href="space_8h.html" target="_top" xlink:title="Contains definition of the cset::space class. ">
<polygon fill="none" stroke="black" points="-0.5,-56.5 -0.5,-75.5 72.5,-75.5 72.5,-56.5 -0.5,-56.5"/>
<text text-anchor="middle" x="36" y="-63.5" font-family="Helvetica,sans-Serif" font-size="10.00">cset/space.h</text>
</a>
</g>
</g>
<!-- Node1&#45;&gt;Node2 -->
<g id="edge1" class="edge"><title>Node1&#45;&gt;Node2</title>
<path fill="none" stroke="midnightblue" d="M73.5692,-112.083C67.1473,-104.377 57.6944,-93.0333 49.8775,-83.6531"/>
<polygon fill="midnightblue" stroke="midnightblue" points="52.3832,-81.1927 43.2926,-75.7511 47.0057,-85.674 52.3832,-81.1927"/>
</g>
<!-- Node4 -->
<g id="node4" class="node"><title>Node4</title>
<g id="a_node4"><a xlink:href="about_8h.html" target="_top" xlink:title="Contains declaration of various trivial functions. ">
<polygon fill="none" stroke="black" points="90.5,-56.5 90.5,-75.5 161.5,-75.5 161.5,-56.5 90.5,-56.5"/>
<text text-anchor="middle" x="126" y="-63.5" font-family="Helvetica,sans-Serif" font-size="10.00">cset/about.h</text>
</a>
</g>
</g>
<!-- Node1&#45;&gt;Node4 -->
<g id="edge3" class="edge"><title>Node1&#45;&gt;Node4</title>
<path fill="none" stroke="midnightblue" d="M88.4308,-112.083C94.8527,-104.377 104.306,-93.0333 112.122,-83.6531"/>
<polygon fill="midnightblue" stroke="midnightblue" points="114.994,-85.674 118.707,-75.7511 109.617,-81.1927 114.994,-85.674"/>
</g>
<!-- Node3 -->
<g id="node3" class="node"><title>Node3</title>
<polygon fill="none" stroke="#bfbfbf" points="10,-0.5 10,-19.5 62,-19.5 62,-0.5 10,-0.5"/>
<text text-anchor="middle" x="36" y="-7.5" font-family="Helvetica,sans-Serif" font-size="10.00">ostream</text>
</g>
<!-- Node2&#45;&gt;Node3 -->
<g id="edge2" class="edge"><title>Node2&#45;&gt;Node3</title>
<path fill="none" stroke="midnightblue" d="M36,-56.083C36,-49.0059 36,-38.8611 36,-29.9865"/>
<polygon fill="midnightblue" stroke="midnightblue" points="39.5001,-29.751 36,-19.7511 32.5001,-29.7511 39.5001,-29.751"/>
</g>
<!-- Node5 -->
<g id="node5" class="node"><title>Node5</title>
<polygon fill="none" stroke="#bfbfbf" points="105.5,-0.5 105.5,-19.5 146.5,-19.5 146.5,-0.5 105.5,-0.5"/>
<text text-anchor="middle" x="126" y="-7.5" font-family="Helvetica,sans-Serif" font-size="10.00">string</text>
</g>
<!-- Node4&#45;&gt;Node5 -->
<g id="edge4" class="edge"><title>Node4&#45;&gt;Node5</title>
<path fill="none" stroke="midnightblue" d="M126,-56.083C126,-49.0059 126,-38.8611 126,-29.9865"/>
<polygon fill="midnightblue" stroke="midnightblue" points="129.5,-29.751 126,-19.7511 122.5,-29.7511 129.5,-29.751"/>
</g>
</g>
</svg>
