<?xml version="1.0" encoding="UTF-8" standalone="no"?>
<!DOCTYPE svg PUBLIC "-//W3C//DTD SVG 1.1//EN"
 "http://www.w3.org/Graphics/SVG/1.1/DTD/svg11.dtd">
<!-- Generated by graphviz version 2.36.0 (20140111.2315)
 -->
<!-- Title: src/space.cpp Pages: 1 -->
<svg width="115pt" height="140pt"
 viewBox="0.00 0.00 115.00 140.00" xmlns="http://www.w3.org/2000/svg" xmlns:xlink="http://www.w3.org/1999/xlink">
<g id="graph0" class="graph" transform="scale(1 1) rotate(0) translate(4 136)">
<title>src/space.cpp</title>
<!-- Node1 -->
<g id="node1" class="node"><title>Node1</title>
<polygon fill="#bfbfbf" stroke="black" points="29,-112.5 29,-131.5 107,-131.5 107,-112.5 29,-112.5"/>
<text text-anchor="middle" x="68" y="-119.5" font-family="Helvetica,sans-Serif" font-size="10.00">src/space.cpp</text>
</g>
<!-- Node2 -->
<g id="node2" class="node"><title>Node2</title>
<g id="a_node2"><a xlink:href="space_8h.html" target="_top" xlink:title="Contains definition of the cset::space class. ">
<polygon fill="none" stroke="black" points="-0.5,-56.5 -0.5,-75.5 72.5,-75.5 72.5,-56.5 -0.5,-56.5"/>
<text text-anchor="middle" x="36" y="-63.5" font-family="Helvetica,sans-Serif" font-size="10.00">cset/space.h</text>
</a>
</g>
</g>
<!-- Node1&#45;&gt;Node2 -->
<g id="edge1" class="edge"><title>Node1&#45;&gt;Node2</title>
<path fill="none" stroke="midnightblue" d="M62.7159,-112.083C58.289,-104.613 51.8367,-93.7244 46.3821,-84.5199"/>
<polygon fill="midnightblue" stroke="midnightblue" points="49.2949,-82.5697 41.1858,-75.7511 43.2729,-86.1383 49.2949,-82.5697"/>
</g>
<!-- Node3 -->
<g id="node3" class="node"><title>Node3</title>
<polygon fill="none" stroke="#bfbfbf" points="42,-0.5 42,-19.5 94,-19.5 94,-0.5 42,-0.5"/>
<text text-anchor="middle" x="68" y="-7.5" font-family="Helvetica,sans-Serif" font-size="10.00">ostream</text>
</g>
<!-- Node1&#45;&gt;Node3 -->
<g id="edge3" class="edge"><title>Node1&#45;&gt;Node3</title>
<path fill="none" stroke="midnightblue" d="M71.344,-112.197C74.5542,-103.24 79.1764,-88.8827 81,-76 83.243,-60.1544 79.2131,-42.3436 75.0635,-29.3784"/>
<polygon fill="midnightblue" stroke="midnightblue" points="78.3058,-28.0481 71.6847,-19.7769 71.7027,-30.3717 78.3058,-28.0481"/>
</g>
<!-- Node2&#45;&gt;Node3 -->
<g id="edge2" class="edge"><title>Node2&#45;&gt;Node3</title>
<path fill="none" stroke="midnightblue" d="M41.2841,-56.083C45.711,-48.6127 52.1633,-37.7244 57.6179,-28.5199"/>
<polygon fill="midnightblue" stroke="midnightblue" points="60.7271,-30.1383 62.8142,-19.7511 54.7051,-26.5697 60.7271,-30.1383"/>
</g>
</g>
</svg>
